<svg t="1709974916451" class="icon" viewBox="0 0 1024 1024" version="1.1" xmlns="http://www.w3.org/2000/svg" p-id="1059" width="50" height="50"><path d="M851.88 232.75a17.47 17.47 0 0 0-14.88-3.34l-203.73 47.34a17.28 17.28 0 0 0-9.94 0l-203.78-47.34-0.61-0.13-0.36-0.07-0.61-0.08-0.37-0.06-0.6-0.07h-2.34l-0.56 0.05h-0.42l-0.52 0.08-0.45 0.06-0.49 0.1-0.48 0.09h-0.07l-213.09 49.5A17.5 17.5 0 0 0 185 296v518.42a17.51 17.51 0 0 0 17.5 17.5 17.2 17.2 0 0 0 4-0.46l209.13-48.58 206 47.85a17.62 17.62 0 0 0 6.35 1.19h0.39a17.57 17.57 0 0 0 6.73-1.18L845 782a17.5 17.5 0 0 0 13.54-17.05v-518.5a17.49 17.49 0 0 0-6.66-13.7zM220 309.86l178.09-41.38V751L220 792.38zM823.5 751l-177.7 41.29v-30.36a17.5 17.5 0 0 0-35 0v30.36L433.09 751V268.48l177.71 41.29v74.79a17.5 17.5 0 0 0 35 0v-74.79l177.7-41.29z" p-id="1060" fill="#f4ea2a"></path><path d="M478.33 504.34a34.76 34.76 0 0 0 0.79 64.48l86.26 33.51 33.51 86.25a34.59 34.59 0 0 0 32 22.17h0.44a34.6 34.6 0 0 0 32.07-21.37l99.88-239.46a34.76 34.76 0 0 0-45.46-45.46z m153 171L598 589.56a34.8 34.8 0 0 0-19.81-19.81l-85.8-33.34L730.72 437z" p-id="1061" fill="#f4ea2a"></path></svg>